<svg xmlns="http://www.w3.org/2000/svg" width="70" height="70" style="width: 100%; height: 100%;" viewBox="0 0 70 70">
    <desc>
        Made with illustrio
    </desc>
    <g class="shadow2" transform="matrix(1,0,0,1,0,2)">
        <g fill="none" fill-rule="evenodd" stroke="none" class="secondary-fill" style="fill-opacity: 0.7;"/>
        <g fill="none" stroke="none" class="secondary-fill" style="fill-opacity: 0.7;" transform="translate(21.636 17.818)">
            <path fill="none" stroke="none" d="M26.7272727,5.46381818 L26.7272727,0.636363636 C26.7272727,0.285090909 26.4428182,0 26.0909091,0 L21.2634545,0 L26.7272727,5.46381818 L26.7272727,5.46381818 Z" class="secondary-fill" style="fill-opacity: 0.7;"/>
            <polygon fill="none" stroke="none" points="20.364 .9 20.364 6.364 25.827 6.364" class="secondary-fill" style="fill-opacity: 0.7;"/>
            <path fill="none" stroke="none" d="M19.7272727,7.63636364 C19.3753636,7.63636364 19.0909091,7.35127273 19.0909091,7 L19.0909091,0 L0.636363636,0 C0.285090909,0 0,0.285090909 0,0.636363636 L0,33.7272727 C0,34.0791818 0.285090909,34.3636364 0.636363636,34.3636364 L26.0909091,34.3636364 C26.4428182,34.3636364 26.7272727,34.0791818 26.7272727,33.7272727 L26.7272727,7.63636364 L19.7272727,7.63636364 L19.7272727,7.63636364 Z M19.0909091,17.1818182 C19.0909091,17.5330909 18.8064545,17.8181818 18.4545455,17.8181818 L8.27272727,17.8181818 C7.92145455,17.8181818 7.63636364,17.5330909 7.63636364,17.1818182 L7.63636364,9.54545455 C7.63636364,9.19418182 7.92145455,8.90909091 8.27272727,8.90909091 L18.4545455,8.90909091 C18.8064545,8.90909091 19.0909091,9.19418182 19.0909091,9.54545455 L19.0909091,17.1818182 L19.0909091,17.1818182 Z" class="secondary-fill" style="fill-opacity: 0.7;"/>
            <path fill="none" stroke="none" d="M8.90909091,16.5454545 L17.8181818,16.5454545 L17.8181818,10.1818182 L8.90909091,10.1818182 L8.90909091,16.5454545 L8.90909091,16.5454545 Z M10.8181818,11.4545455 L15.9090909,11.4545455 C16.261,11.4545455 16.5454545,11.7396364 16.5454545,12.0909091 C16.5454545,12.4421818 16.261,12.7272727 15.9090909,12.7272727 L10.8181818,12.7272727 C10.4669091,12.7272727 10.1818182,12.4421818 10.1818182,12.0909091 C10.1818182,11.7396364 10.4669091,11.4545455 10.8181818,11.4545455 L10.8181818,11.4545455 Z M10.8181818,14 L13.3636364,14 C13.7149091,14 14,14.2850909 14,14.6363636 C14,14.9876364 13.7149091,15.2727273 13.3636364,15.2727273 L10.8181818,15.2727273 C10.4669091,15.2727273 10.1818182,14.9876364 10.1818182,14.6363636 C10.1818182,14.2850909 10.4669091,14 10.8181818,14 L10.8181818,14 Z" class="secondary-fill" style="fill-opacity: 0.7;"/>
        </g>
    </g>
    <g class="shadow" transform="matrix(1,0,0,1,0,1)">
        <g fill="none" fill-rule="evenodd" stroke="none" class="secondary-fill" style="fill-opacity: 0.7;"/>
        <g fill="none" stroke="none" class="secondary-fill" style="fill-opacity: 0.7;" transform="translate(21.636 17.818)">
            <path fill="none" stroke="none" d="M26.7272727,5.46381818 L26.7272727,0.636363636 C26.7272727,0.285090909 26.4428182,0 26.0909091,0 L21.2634545,0 L26.7272727,5.46381818 L26.7272727,5.46381818 Z" class="secondary-fill" style="fill-opacity: 0.7;"/>
            <polygon fill="none" stroke="none" points="20.364 .9 20.364 6.364 25.827 6.364" class="secondary-fill" style="fill-opacity: 0.7;"/>
            <path fill="none" stroke="none" d="M19.7272727,7.63636364 C19.3753636,7.63636364 19.0909091,7.35127273 19.0909091,7 L19.0909091,0 L0.636363636,0 C0.285090909,0 0,0.285090909 0,0.636363636 L0,33.7272727 C0,34.0791818 0.285090909,34.3636364 0.636363636,34.3636364 L26.0909091,34.3636364 C26.4428182,34.3636364 26.7272727,34.0791818 26.7272727,33.7272727 L26.7272727,7.63636364 L19.7272727,7.63636364 L19.7272727,7.63636364 Z M19.0909091,17.1818182 C19.0909091,17.5330909 18.8064545,17.8181818 18.4545455,17.8181818 L8.27272727,17.8181818 C7.92145455,17.8181818 7.63636364,17.5330909 7.63636364,17.1818182 L7.63636364,9.54545455 C7.63636364,9.19418182 7.92145455,8.90909091 8.27272727,8.90909091 L18.4545455,8.90909091 C18.8064545,8.90909091 19.0909091,9.19418182 19.0909091,9.54545455 L19.0909091,17.1818182 L19.0909091,17.1818182 Z" class="secondary-fill" style="fill-opacity: 0.7;"/>
            <path fill="none" stroke="none" d="M8.90909091,16.5454545 L17.8181818,16.5454545 L17.8181818,10.1818182 L8.90909091,10.1818182 L8.90909091,16.5454545 L8.90909091,16.5454545 Z M10.8181818,11.4545455 L15.9090909,11.4545455 C16.261,11.4545455 16.5454545,11.7396364 16.5454545,12.0909091 C16.5454545,12.4421818 16.261,12.7272727 15.9090909,12.7272727 L10.8181818,12.7272727 C10.4669091,12.7272727 10.1818182,12.4421818 10.1818182,12.0909091 C10.1818182,11.7396364 10.4669091,11.4545455 10.8181818,11.4545455 L10.8181818,11.4545455 Z M10.8181818,14 L13.3636364,14 C13.7149091,14 14,14.2850909 14,14.6363636 C14,14.9876364 13.7149091,15.2727273 13.3636364,15.2727273 L10.8181818,15.2727273 C10.4669091,15.2727273 10.1818182,14.9876364 10.1818182,14.6363636 C10.1818182,14.2850909 10.4669091,14 10.8181818,14 L10.8181818,14 Z" class="secondary-fill" style="fill-opacity: 0.7;"/>
        </g>
    </g>
    <g class="white-layer">
        <g fill="#ffffff" fill-rule="evenodd" stroke="none"/>
        <g fill="#ffffff" stroke="none" transform="translate(21.636 17.818)">
            <path fill="#ffffff" stroke="none" d="M26.7272727,5.46381818 L26.7272727,0.636363636 C26.7272727,0.285090909 26.4428182,0 26.0909091,0 L21.2634545,0 L26.7272727,5.46381818 L26.7272727,5.46381818 Z"/>
            <polygon fill="#ffffff" stroke="none" points="20.364 .9 20.364 6.364 25.827 6.364"/>
            <path fill="#ffffff" stroke="none" d="M19.7272727,7.63636364 C19.3753636,7.63636364 19.0909091,7.35127273 19.0909091,7 L19.0909091,0 L0.636363636,0 C0.285090909,0 0,0.285090909 0,0.636363636 L0,33.7272727 C0,34.0791818 0.285090909,34.3636364 0.636363636,34.3636364 L26.0909091,34.3636364 C26.4428182,34.3636364 26.7272727,34.0791818 26.7272727,33.7272727 L26.7272727,7.63636364 L19.7272727,7.63636364 L19.7272727,7.63636364 Z M19.0909091,17.1818182 C19.0909091,17.5330909 18.8064545,17.8181818 18.4545455,17.8181818 L8.27272727,17.8181818 C7.92145455,17.8181818 7.63636364,17.5330909 7.63636364,17.1818182 L7.63636364,9.54545455 C7.63636364,9.19418182 7.92145455,8.90909091 8.27272727,8.90909091 L18.4545455,8.90909091 C18.8064545,8.90909091 19.0909091,9.19418182 19.0909091,9.54545455 L19.0909091,17.1818182 L19.0909091,17.1818182 Z"/>
            <path fill="#ffffff" stroke="none" d="M8.90909091,16.5454545 L17.8181818,16.5454545 L17.8181818,10.1818182 L8.90909091,10.1818182 L8.90909091,16.5454545 L8.90909091,16.5454545 Z M10.8181818,11.4545455 L15.9090909,11.4545455 C16.261,11.4545455 16.5454545,11.7396364 16.5454545,12.0909091 C16.5454545,12.4421818 16.261,12.7272727 15.9090909,12.7272727 L10.8181818,12.7272727 C10.4669091,12.7272727 10.1818182,12.4421818 10.1818182,12.0909091 C10.1818182,11.7396364 10.4669091,11.4545455 10.8181818,11.4545455 L10.8181818,11.4545455 Z M10.8181818,14 L13.3636364,14 C13.7149091,14 14,14.2850909 14,14.6363636 C14,14.9876364 13.7149091,15.2727273 13.3636364,15.2727273 L10.8181818,15.2727273 C10.4669091,15.2727273 10.1818182,14.9876364 10.1818182,14.6363636 C10.1818182,14.2850909 10.4669091,14 10.8181818,14 L10.8181818,14 Z"/>
        </g>
    </g>
    <g class="base">
        <g fill="none" fill-rule="evenodd" stroke="none" class="main-stroke main-fill" style="fill-opacity: 0.1;"/>
        <g fill="none" stroke="none" class="main-stroke main-fill" style="fill-opacity: 0.1;" transform="translate(21.636 17.818)">
            <path fill="none" stroke="none" d="M26.7272727,5.46381818 L26.7272727,0.636363636 C26.7272727,0.285090909 26.4428182,0 26.0909091,0 L21.2634545,0 L26.7272727,5.46381818 L26.7272727,5.46381818 Z" class="main-stroke main-fill" style="fill-opacity: 0.1;"/>
            <polygon fill="none" stroke="none" points="20.364 .9 20.364 6.364 25.827 6.364" class="main-stroke main-fill" style="fill-opacity: 0.1;"/>
            <path fill="none" stroke="none" d="M19.7272727,7.63636364 C19.3753636,7.63636364 19.0909091,7.35127273 19.0909091,7 L19.0909091,0 L0.636363636,0 C0.285090909,0 0,0.285090909 0,0.636363636 L0,33.7272727 C0,34.0791818 0.285090909,34.3636364 0.636363636,34.3636364 L26.0909091,34.3636364 C26.4428182,34.3636364 26.7272727,34.0791818 26.7272727,33.7272727 L26.7272727,7.63636364 L19.7272727,7.63636364 L19.7272727,7.63636364 Z M19.0909091,17.1818182 C19.0909091,17.5330909 18.8064545,17.8181818 18.4545455,17.8181818 L8.27272727,17.8181818 C7.92145455,17.8181818 7.63636364,17.5330909 7.63636364,17.1818182 L7.63636364,9.54545455 C7.63636364,9.19418182 7.92145455,8.90909091 8.27272727,8.90909091 L18.4545455,8.90909091 C18.8064545,8.90909091 19.0909091,9.19418182 19.0909091,9.54545455 L19.0909091,17.1818182 L19.0909091,17.1818182 Z" class="main-stroke main-fill" style="fill-opacity: 0.1;"/>
            <path fill="none" stroke="none" d="M8.90909091,16.5454545 L17.8181818,16.5454545 L17.8181818,10.1818182 L8.90909091,10.1818182 L8.90909091,16.5454545 L8.90909091,16.5454545 Z M10.8181818,11.4545455 L15.9090909,11.4545455 C16.261,11.4545455 16.5454545,11.7396364 16.5454545,12.0909091 C16.5454545,12.4421818 16.261,12.7272727 15.9090909,12.7272727 L10.8181818,12.7272727 C10.4669091,12.7272727 10.1818182,12.4421818 10.1818182,12.0909091 C10.1818182,11.7396364 10.4669091,11.4545455 10.8181818,11.4545455 L10.8181818,11.4545455 Z M10.8181818,14 L13.3636364,14 C13.7149091,14 14,14.2850909 14,14.6363636 C14,14.9876364 13.7149091,15.2727273 13.3636364,15.2727273 L10.8181818,15.2727273 C10.4669091,15.2727273 10.1818182,14.9876364 10.1818182,14.6363636 C10.1818182,14.2850909 10.4669091,14 10.8181818,14 L10.8181818,14 Z" class="main-stroke main-fill" style="fill-opacity: 0.1;"/>
        </g>
    </g>
    <style>
        .main-fill {fill: #7e57c2;} .main-stroke {stroke: #7e57c2;} .secondary-fill {fill: #ff4081;} .secondary-stroke {stroke: #ff4081;} .main-fill--darken {fill: #593696;} .main-stroke--darken {stroke: #593696;} .secondary-fill--darken {fill: #f20053;} .secondary-stroke--darken {stroke: #f20053;} .main-fill--darkener {fill: #432971;} .main-stroke--darkener {stroke: #432971;} .secondary-fill--darkener {fill: #bf0041;} .secondary-stroke--darkener {stroke: #bf0041;}
    </style>
</svg>
