<svg xmlns="http://www.w3.org/2000/svg" width="70" height="70" style="width:100%;height:100%" viewBox="0 0 70 70"><desc>Made with illustrio</desc><g class="shadow2"><g fill="none" class="secondary-fill" fill-opacity=".7"><path d="M48.363 25.282v-4.828a.636.636 0 0 0-.636-.636h-4.828l5.464 5.464zM42 20.718v5.464h5.463z" class="secondary-fill"/><path d="M41.363 27.454a.636.636 0 0 1-.636-.636v-7H22.272a.637.637 0 0 0-.636.636v33.091c0 .352.285.637.636.637h25.455a.636.636 0 0 0 .636-.637v-26.09h-7zM40.727 37a.636.636 0 0 1-.636.636H29.909a.637.637 0 0 1-.637-.636v-7.637c0-.35.285-.636.637-.636H40.09c.351 0 .636.285.636.636V37z" class="secondary-fill"/><path d="M30.545 36.363h8.91V30h-8.91v6.363zm1.91-5.09h5.09a.636.636 0 1 1 0 1.272h-5.09a.637.637 0 0 1 0-1.272zm0 2.545H35a.637.637 0 0 1 0 1.273h-2.546a.637.637 0 0 1 0-1.273z" class="secondary-fill"/></g></g><g class="shadow"><g fill="none" class="secondary-fill" fill-opacity=".7"><path d="M48.363 24.282v-4.828a.636.636 0 0 0-.636-.636h-4.828l5.464 5.464zM42 19.718v5.464h5.463z" class="secondary-fill"/><path d="M41.363 26.454a.636.636 0 0 1-.636-.636v-7H22.272a.637.637 0 0 0-.636.636v33.091c0 .352.285.637.636.637h25.455a.636.636 0 0 0 .636-.637v-26.09h-7zM40.727 36a.636.636 0 0 1-.636.636H29.909a.637.637 0 0 1-.637-.636v-7.637c0-.35.285-.636.637-.636H40.09c.351 0 .636.285.636.636V36z" class="secondary-fill"/><path d="M30.545 35.363h8.91V29h-8.91v6.363zm1.91-5.09h5.09a.636.636 0 1 1 0 1.272h-5.09a.637.637 0 0 1 0-1.272zm0 2.545H35a.637.637 0 0 1 0 1.273h-2.546a.637.637 0 0 1 0-1.273z" class="secondary-fill"/></g></g><g class="white-layer" fill="#fff"><path d="M48.363 23.282v-4.828a.636.636 0 0 0-.636-.636h-4.828l5.464 5.464zM42 18.718v5.464h5.463z"/><path d="M41.363 25.454a.636.636 0 0 1-.636-.636v-7H22.272a.637.637 0 0 0-.636.636v33.091c0 .352.285.637.636.637h25.455a.636.636 0 0 0 .636-.637v-26.09h-7zM40.727 35a.636.636 0 0 1-.636.636H29.909a.637.637 0 0 1-.637-.636v-7.637c0-.35.285-.636.637-.636H40.09c.351 0 .636.285.636.636V35z"/><path d="M30.545 34.363h8.91V28h-8.91v6.363zm1.91-5.09h5.09a.636.636 0 1 1 0 1.272h-5.09a.637.637 0 0 1 0-1.272zm0 2.545H35a.637.637 0 0 1 0 1.273h-2.546a.637.637 0 0 1 0-1.273z"/></g><g class="base"><g fill="none" class="main-stroke main-fill" fill-opacity=".1"><path d="M48.363 23.282v-4.828a.636.636 0 0 0-.636-.636h-4.828l5.464 5.464zM42 18.718v5.464h5.463z" class="main-stroke main-fill"/><path d="M41.363 25.454a.636.636 0 0 1-.636-.636v-7H22.272a.637.637 0 0 0-.636.636v33.091c0 .352.285.637.636.637h25.455a.636.636 0 0 0 .636-.637v-26.09h-7zM40.727 35a.636.636 0 0 1-.636.636H29.909a.637.637 0 0 1-.637-.636v-7.637c0-.35.285-.636.637-.636H40.09c.351 0 .636.285.636.636V35z" class="main-stroke main-fill"/><path d="M30.545 34.363h8.91V28h-8.91v6.363zm1.91-5.09h5.09a.636.636 0 1 1 0 1.272h-5.09a.637.637 0 0 1 0-1.272zm0 2.545H35a.637.637 0 0 1 0 1.273h-2.546a.637.637 0 0 1 0-1.273z" class="main-stroke main-fill"/></g></g><style>.main-fill{fill:#7e57c2}.main-stroke{stroke:#7e57c2}.secondary-fill{fill:#ff4081}.secondary-stroke{stroke:#ff4081}.main-fill--darken{fill:#593696}.main-stroke--darken{stroke:#593696}.secondary-fill--darken{fill:#f20053}.secondary-stroke--darken{stroke:#f20053}.main-fill--darkener{fill:#432971}.main-stroke--darkener{stroke:#432971}.secondary-fill--darkener{fill:#bf0041}.secondary-stroke--darkener{stroke:#bf0041}</style></svg>